<?xml version="1.0" encoding="UTF-8"?>
<svg version="1.1" xmlns="http://www.w3.org/2000/svg" width="1592" height="626">
<path d="M0 0 C10.28989187 3.82937152 19.80103764 9.87383608 26.359375 18.86328125 C28.1930247 24.97917383 24.87692779 31.11247504 22.41015625 36.6015625 C17.88538856 47.02120377 14.11519828 57.63230534 10.4375 68.375 C9.71565345 70.47016009 8.99372684 72.5652926 8.27172852 74.66040039 C-6.78331928 118.46324422 -21.31352196 162.44586682 -35.31765747 206.59536743 C-37.38516081 213.10081607 -39.49112072 219.59287727 -41.62109375 226.078125 C-42.05782158 227.40798431 -42.05782158 227.40798431 -42.50337219 228.76470947 C-42.78996201 229.63738464 -43.07655182 230.51005981 -43.37182617 231.40917969 C-47.53026652 244.07513491 -51.65507417 256.74086515 -55.3125 269.5625 C-55.59681885 270.54355713 -55.8811377 271.52461426 -56.17407227 272.53540039 C-57.55307741 277.52248134 -58.30522346 281.82539758 -58 287 C-54.99159891 287.92400891 -53.49917369 288.2143887 -50.5625 286.953125 C-43.43744635 282.21757105 -36.99285084 276.93800166 -30.54931641 271.3359375 C-26.44519684 267.79705596 -22.20666326 264.41552685 -18 261 C-16.71481426 259.95576546 -15.4296601 258.91149206 -14.14453125 257.8671875 C-12.06427508 256.1769639 -9.98388077 254.48691169 -7.90307617 252.79736328 C-4.09595554 249.70562928 -0.29375498 246.60813661 3.5 243.5 C23.13808906 227.42444284 23.13808906 227.42444284 32.1875 220.375 C37.33249057 216.36315833 42.35043435 212.22616319 47.31054688 207.98828125 C50.73035085 205.06658825 54.19023157 202.20425086 57.6875 199.375 C62.08582786 195.79777821 66.29298854 192.05402459 70.484375 188.23828125 C73.90494533 185.19482349 77.45721979 182.32911449 81.015625 179.44921875 C84.38760956 176.68189635 87.69675629 173.84864421 91 171 C95.20277542 167.37561957 99.43549757 163.80432188 103.75 160.3125 C108.12939404 156.75904431 112.31395765 153.037352 116.48046875 149.23828125 C119.03204917 146.97152842 121.65171532 144.82459913 124.3125 142.6875 C129.1250529 138.79808842 133.6459852 134.6725675 138.15893555 130.4465332 C142.39494858 126.50209561 146.80634808 122.83519299 151.3203125 119.2109375 C155.08600023 116.10397065 158.64501185 112.78781051 162.234375 109.48046875 C165.00517601 106.99535768 167.85051362 104.64555667 170.75 102.3125 C174.51295601 99.27544756 177.9796073 96.1394187 181.33984375 92.66796875 C183.70558218 90.29109743 186.23740001 88.12898785 188.77734375 85.94140625 C192.18046677 82.96890689 195.4859105 79.89060095 198.80078125 76.8203125 C200.57708851 75.2104405 202.38431339 73.69785643 204.27001953 72.21533203 C213.71468593 64.77137219 221.9088345 56.17733217 230.25878906 47.54931641 C232.21054022 45.53701996 234.17467813 43.53747865 236.140625 41.5390625 C236.72620178 40.92656647 237.31177856 40.31407043 237.9151001 39.68301392 C241.68175989 35.87127138 244.94028005 33.79784962 250 32 C254.38439425 34.96242854 256.54999414 37.96721879 258 43 C259.52981469 51.06407639 258.17079769 57.90658023 256.5 65.875 C256.00371795 68.28769429 255.51381195 70.70171166 255.03125 73.1171875 C254.81017578 74.17534668 254.58910156 75.23350586 254.36132812 76.32373047 C253.78715076 79.09531278 253.78715076 79.09531278 255 82 C262.85588837 85.92794419 278.00597022 80.4483975 286.42306519 78.8482666 C302.21805608 75.85476688 318.03413194 73.10177408 333.9375 70.75 C334.76029449 70.62802246 335.58308899 70.50604492 336.43081665 70.38037109 C344.82087432 69.14180571 353.21716677 67.9590976 361.625 66.84765625 C362.29785538 66.75795563 362.97071075 66.668255 363.66395569 66.57583618 C366.75299802 66.16445785 369.84253663 65.76240403 372.93530273 65.37988281 C383.66338313 64.4116435 383.66338313 64.4116435 392.61352539 59.24633789 C394.18601476 56.69862268 395.12772602 54.25855584 396.0859375 51.421875 C396.45976563 50.34292969 396.83359375 49.26398437 397.21875 48.15234375 C397.98401463 45.90050087 398.74706913 43.64790558 399.5078125 41.39453125 C405.49361048 24.1546131 405.49361048 24.1546131 412 21 C417.27799774 20.45426907 421.13559833 22.02719597 425.75 24.375 C426.44939697 24.72643066 427.14879395 25.07786133 427.86938477 25.43994141 C434.6050533 29.00839444 441.51239274 34.02478548 445 41 C445.39919213 46.68848788 444.67134151 50.66980394 442.4609375 55.921875 C441.80516349 58.04054345 441.80516349 58.04054345 442.7265625 60.203125 C443.95652146 62.31393444 443.95652146 62.31393444 447 63 C449.56282063 63.23402395 452.11196759 63.42318001 454.6796875 63.578125 C456.30488905 63.68471289 457.93005001 63.79192103 459.55517578 63.8996582 C460.41983459 63.95610504 461.28449341 64.01255188 462.175354 64.07070923 C584.16069127 72.17208447 584.16069127 72.17208447 610.36328125 99.921875 C613.87440089 104.37990758 614.68275064 108.04654829 614.5625 113.67578125 C612.53134094 125.67936707 604.29741129 136.47124825 596 145 C592.9626256 146.5186872 590.28279547 146.53721177 587 146 C583.28031465 144.55745859 579.78815149 142.71171949 576.25 140.875 C538.77519034 122.28887072 496.25223154 120.90712386 455.21295166 118.1496582 C453.16826465 118.01137946 451.12390974 117.86821336 449.07958984 117.72460938 C445.86636233 117.50439654 442.65302733 117.30805423 439.4375 117.125 C438.55352539 117.0636084 437.66955078 117.0022168 436.75878906 116.93896484 C431.33362548 116.67624768 427.77705015 117.33797969 423 120 C412.41009715 130.24658929 408.2896309 153.33095896 403.625 166.875 C403.23493774 168.00504456 402.84487549 169.13508911 402.44299316 170.29937744 C388.77224822 209.93705153 375.97871286 249.81997459 364 290 C363.65733093 291.14809143 363.31466187 292.29618286 362.96160889 293.47906494 C352.85539553 327.34913915 343.00579734 361.28450988 333.44654846 395.31355286 C331.14880395 403.48795605 328.81407677 411.65131836 326.46725464 419.81173706 C325.281012 423.94430152 324.10500942 428.07978413 322.93013 432.21559143 C321.77945912 436.2656225 320.62350915 440.31406704 319.46142578 444.36083984 C308.53225235 482.47582491 299.94048414 520.6271326 293.5078125 559.75 C293.38076935 560.51543121 293.2537262 561.28086243 293.12283325 562.06948853 C292.46912676 566.03234442 291.85092315 569.9969422 291.28027344 573.97265625 C291.15844696 574.78444336 291.03662048 575.59623047 290.91110229 576.43261719 C290.68136771 577.96662026 290.46312728 579.50241054 290.25906372 581.04003906 C289.51392556 585.90924475 288.07898868 589.16223229 285 593 C278.10158055 597.31151215 270.35943539 596.92669141 262.58203125 595.2734375 C255.95666734 593.39790295 248.78159682 591.31854693 244.84765625 585.2109375 C241.84012199 577.36640114 244.08476096 567.55643867 245.6015625 559.53125 C245.77560608 558.59374908 245.94964966 557.65624817 246.12896729 556.69033813 C248.79380795 542.54405743 251.7864244 528.46106435 254.75 514.375 C254.90637814 513.63118954 255.06275627 512.88737907 255.22387314 512.1210289 C256.93946108 503.96125702 258.66023847 495.80259668 260.38623047 487.64501953 C261.48500994 482.45169545 262.5714801 477.25599548 263.64483643 472.05735779 C270.06568914 441.05677294 278.65392786 410.52659108 287 380 C287.46756714 378.28958527 287.46756714 378.28958527 287.94458008 376.5446167 C296.99167927 343.52913331 307.19305697 310.89760761 317.65576172 278.30908203 C319.89834734 271.32312097 322.12481527 264.33210787 324.34765625 257.33984375 C333.43383515 228.77965217 342.76836977 200.3170647 352.44921875 171.953125 C352.83526779 170.82112671 353.22131683 169.68912842 353.61906433 168.52282715 C355.5380395 162.89637127 357.46051437 157.27116742 359.39038086 151.6484375 C360.09629662 149.5833693 360.80211184 147.51826672 361.5078125 145.453125 C361.83122116 144.51511047 362.15462982 143.57709595 362.48783875 142.61065674 C366.3203463 132.52090739 366.3203463 132.52090739 367 122 C363.33105474 119.55403649 360.89435849 119.83558699 356.6875 120.125 C355.90463623 120.17575684 355.12177246 120.22651367 354.31518555 120.27880859 C305.24476258 123.90123853 255.74262397 134.88745496 209 150 C207.55125488 150.46768799 207.55125488 150.46768799 206.07324219 150.94482422 C173.12579466 161.71768746 146.02302213 178.56776697 120.453125 201.828125 C117.9003541 204.08822153 115.27982323 206.235971 112.625 208.375 C108.61175889 211.6195076 104.77564046 214.9872668 101 218.5 C96.367489 222.8099377 91.5787805 226.8506094 86.6484375 230.8203125 C84.02724881 232.97757399 81.50845719 235.21311 79 237.5 C73.82830871 242.20599397 68.44008716 246.6096198 63 251 C55.74970094 256.87081738 48.62248194 262.86597308 41.55078125 268.94921875 C32.46994589 276.75938242 23.29835664 284.4496373 14 292 C12.77338985 292.99733723 11.54683053 293.99473698 10.3203125 294.9921875 C7.60907764 297.19655243 4.89665904 299.39945092 2.18359375 301.6015625 C-0.57711254 303.84282603 -3.33478 306.08774204 -6.08984375 308.3359375 C-12.41173701 313.49078241 -18.75274012 318.61150772 -25.1875 323.625 C-30.89009685 328.07172053 -36.42320285 332.69140227 -41.921875 337.38671875 C-44.7270732 339.77882269 -47.57463157 342.11455851 -50.4375 344.4375 C-69.92543463 359.14285063 -69.92543463 359.14285063 -86 377 C-86.06579146 378.99891758 -86.07319086 381.00133967 -86 383 C-76.67546621 384.45405076 -67.3875062 385.45295613 -57.9826355 386.20300293 C-32.79149964 388.25876711 -5.26468032 391.26796692 13 411 C20.50714297 420.37022955 22.7240619 429.96942518 21.54296875 441.8359375 C20.59791026 447.34311289 18.83590415 451.91930863 15.125 456.125 C12.09181993 457.3739565 10.16701264 456.74609377 7 456 C4.52734375 454.6171875 4.52734375 454.6171875 1.9375 452.875 C-22.3428989 438.35436928 -53.41263809 436.17304524 -81 435 C-82.01964844 434.9494043 -83.03929687 434.89880859 -84.08984375 434.84667969 C-86.87259382 434.71825928 -89.65268408 434.63025771 -92.4375 434.5625 C-93.24179443 434.52793701 -94.04608887 434.49337402 -94.87475586 434.45776367 C-98.53078845 434.43114111 -100.72135729 434.81812442 -103.80078125 436.828125 C-106.9221392 441.32997696 -108.2543012 445.95057575 -109.75 451.1875 C-110.08290039 452.31373779 -110.41580078 453.43997559 -110.75878906 454.6003418 C-111.86564106 458.39302814 -112.93937245 462.19420526 -114 466 C-114.28834717 467.03090759 -114.28834717 467.03090759 -114.58251953 468.0826416 C-119.977234 487.4092617 -125.1414706 506.72607967 -127.7578125 526.65625 C-127.88365723 527.60201904 -128.00950195 528.54778809 -128.13916016 529.5222168 C-128.37079292 531.31337432 -128.58789829 533.10650457 -128.78662109 534.90161133 C-129.55085947 541.02706091 -130.74873351 547.05925363 -135.51074219 551.36645508 C-140.04915045 554.32244373 -144.44600096 554.62993075 -149.75 554.5 C-150.93589722 554.48187256 -150.93589722 554.48187256 -152.14575195 554.46337891 C-161.33119812 554.15366222 -168.69305522 551.77553343 -175.66015625 545.66015625 C-179.85299615 540.46494646 -179.01827922 535.26537666 -178.45849609 528.98681641 C-177.77796092 522.7405101 -176.77120264 516.5515058 -175.69067383 510.36352539 C-175.31972938 508.22909811 -174.9648037 506.09245832 -174.61132812 503.95507812 C-170.71856962 480.97478311 -164.32943299 458.57191538 -157.9375 436.1875 C-156.54691377 431.30708026 -155.16001732 426.42563618 -153.77734375 421.54296875 C-153.44471024 420.3699118 -153.11207672 419.19685486 -152.7693634 417.98825073 C-150.83548036 411.12002921 -149.02946996 404.23561936 -147.3515625 397.30078125 C-145.17822164 388.36030932 -142.42340157 379.69801849 -139.4375 371 C-138.91257533 369.45080389 -138.38850922 367.90131665 -137.86523438 366.3515625 C-136.78435597 363.15252595 -135.69990755 359.95473494 -134.61279297 356.7578125 C-132.57386427 350.75356019 -130.57117156 344.7373883 -128.57026672 338.72038269 C-127.10240572 334.30678563 -125.63176564 329.8941193 -124.16040039 325.48168945 C-122.1913644 319.57593906 -120.22422131 313.66956421 -118.25927734 307.76245117 C-111.05884014 286.12204151 -103.79481509 264.5034815 -96.49732208 242.89562225 C-95.60664183 240.25813774 -94.71622526 237.62056432 -93.8258667 234.98297119 C-86.9447971 214.5996045 -80.05570935 194.21924562 -73.08032227 173.86791992 C-69.70590066 164.01878862 -66.35942922 154.16040331 -63.02734375 144.296875 C-50.58039305 107.45574079 -38.02980601 70.65835481 -24.875 34.0625 C-24.61009766 33.32328308 -24.34519531 32.58406616 -24.07226562 31.82244873 C-11.89566703 -2.11081009 -11.89566703 -2.11081009 0 0 Z " fill="#000000" transform="translate(969,11)"/>
<path d="M0 0 C6.06185774 3.16904715 10.84257829 7.24765658 13.9375 13.4375 C15.3238259 23.2691091 11.8396689 31.9768071 8.625 41.0625 C8.07150933 42.66897243 7.51986632 44.2760825 6.9699707 45.88378906 C5.84447833 49.16842051 4.71110872 52.45014489 3.5703125 55.72949219 C1.20629444 62.53243428 -1.09340825 69.35653634 -3.375 76.1875 C-3.59299255 76.83897003 -3.81098511 77.49044006 -4.0355835 78.16165161 C-16.74046143 116.19365111 -28.31671477 154.63650678 -39.4609375 193.15234375 C-45.03585738 212.4137763 -50.65431681 231.64579692 -56.75 250.75 C-57.02048157 251.59844482 -57.29096313 252.44688965 -57.56964111 253.32104492 C-59.8421674 260.44252293 -62.12448518 267.56082131 -64.43847656 274.66894531 C-76.91033932 312.98985809 -87.22398529 351.9781564 -97.25 391 C-97.51222351 392.01344482 -97.77444702 393.02688965 -98.0446167 394.07104492 C-102.95178312 413.08928323 -107.29030098 432.29992893 -109.98432922 451.77024841 C-110.78819916 457.10607548 -112.12198653 461.61459341 -116.125 465.375 C-121.71868019 467.39824603 -126.67902794 466.37148142 -132.1328125 464.234375 C-141.10386991 459.9624429 -147.76220164 455.53428498 -152.0625 446.4375 C-157.79339039 424.61603275 -145.52091308 395.73363154 -140.1484375 374.54296875 C-139.96867371 373.83346573 -139.78890991 373.12396271 -139.60369873 372.39295959 C-138.34945504 367.47725805 -137.00408519 362.59302081 -135.56494141 357.7277832 C-135.01844713 355.23669338 -134.97405793 352.98006871 -135.0625 350.4375 C-136.75223726 349.55193256 -136.75223726 349.55193256 -139.0625 349.4375 C-143.52109984 351.81541991 -146.72868032 354.99660241 -150.234375 358.59375 C-166.32083258 374.81769867 -187.92600146 391.30797887 -211.5625 391.75 C-226.22605658 391.79543969 -238.8896017 386.14538698 -249.64453125 376.32421875 C-253.0749322 372.22879661 -255.19209193 367.68994756 -257.19946289 362.75854492 C-258.13940881 360.44853371 -258.13940881 360.44853371 -260.0625 357.4375 C-263.00858741 356.11604535 -263.00858741 356.11604535 -266.0625 356.4375 C-268.00332295 357.27531941 -268.00332295 357.27531941 -269.5625 358.9375 C-270.22894531 359.57558594 -270.89539063 360.21367187 -271.58203125 360.87109375 C-281.45959561 371.02149421 -281.45959561 371.02149421 -290.7578125 381.6953125 C-292.66506643 383.96462142 -294.49061678 385.85329434 -296.75 387.75 C-299.00085533 389.65650806 -301.20315716 391.57093162 -303.34375 393.6015625 C-313.41529955 403.11721484 -324.35777066 410.95663989 -338.61938477 411.00756836 C-348.6506459 410.68244448 -356.83681564 405.88400926 -364.125 399.125 C-373.51572276 388.84407862 -375.71742754 377.04209377 -375.375 363.53125 C-373.02275813 314.29098681 -351.29520856 225.15334584 -317.0625 187.4375 C-313.64132923 185.1319284 -311.90539695 184.37743608 -307.7734375 184.671875 C-297.57353362 186.77627622 -288.1028176 193.33394092 -281.6875 201.4375 C-279.93862364 204.66619481 -279.33669097 206.7876136 -279.0625 210.4375 C-280.06640625 213.296875 -280.06640625 213.296875 -281.625 216.1875 C-282.18445313 217.239375 -282.74390625 218.29125 -283.3203125 219.375 C-284.82524836 222.02044779 -286.38728636 224.60715818 -288 227.1875 C-294.25009305 237.45319688 -298.32812621 248.92311553 -302.5625 260.125 C-302.90579346 261.03072754 -303.24908691 261.93645508 -303.6027832 262.86962891 C-309.74986722 279.38056836 -315.03544817 296.15374367 -319.77246094 313.11865234 C-320.57870864 315.99533217 -321.40250249 318.86665969 -322.2265625 321.73828125 C-322.74585478 323.58563899 -323.26412486 325.43328445 -323.78125 327.28125 C-324.02693726 328.13013794 -324.27262451 328.97902588 -324.52575684 329.8536377 C-325.6768868 334.04477303 -326.48611657 337.16665029 -325.0625 341.4375 C-321.06665635 341.52251795 -318.99939051 341.19162277 -315.83984375 338.6484375 C-313.49741023 336.31002187 -311.26258568 333.91012771 -309.0625 331.4375 C-308.21751953 330.50550781 -308.21751953 330.50550781 -307.35546875 329.5546875 C-305.56231318 327.53902357 -303.81066478 325.49236036 -302.0625 323.4375 C-300.10566648 321.14454985 -298.146903 318.85325466 -296.1875 316.5625 C-295.66929687 315.95623779 -295.15109375 315.34997559 -294.6171875 314.7253418 C-290.83499331 310.31100456 -286.98007195 305.96961702 -283.07421875 301.6640625 C-280.63800648 298.96767222 -278.25190787 296.2301602 -275.8671875 293.48828125 C-273.83291859 291.17661203 -271.7602769 288.9021857 -269.6875 286.625 C-266.59613199 283.20520672 -263.63790968 279.71791476 -260.75 276.125 C-256.86058842 271.3124471 -252.7350675 266.7915148 -248.5090332 262.27856445 C-244.56385571 258.04175682 -240.89523384 253.63072037 -237.2734375 249.11328125 C-234.96041024 246.31394614 -232.53510058 243.65899662 -230.0625 241 C-226.69996035 237.34776463 -223.62675369 233.62535611 -220.6875 229.625 C-205.24771083 208.68832254 -185.65549243 184.44236926 -159.0625 178.4375 C-155.79766058 178.16458773 -153.19373466 178.50845235 -150.0625 179.4375 C-149.27617188 179.66695312 -148.48984375 179.89640625 -147.6796875 180.1328125 C-134.72987573 184.63885986 -123.98443289 194.59894792 -116.484375 205.87109375 C-115.13579955 207.54410381 -115.13579955 207.54410381 -113.140625 208.41015625 C-110.89183924 208.66854778 -110.89183924 208.66854778 -109.0859375 206.74438477 C-107.02797663 204.39814052 -105.87593865 202.39451872 -104.609375 199.5546875 C-104.16360107 198.57040771 -103.71782715 197.58612793 -103.25854492 196.57202148 C-102.7813501 195.49637939 -102.30415527 194.4207373 -101.8125 193.3125 C-100.74240571 190.94590992 -99.6707211 188.580084 -98.59765625 186.21484375 C-98.17417656 185.27775322 -98.17417656 185.27775322 -97.74214172 184.32173157 C-94.66066606 177.51510569 -91.46056904 170.76555683 -88.26199341 164.01339722 C-68.91246619 123.12679181 -51.05950497 82.21039836 -36.66377258 39.30184937 C-35.59906455 36.1308995 -34.52810348 32.96207111 -33.45755005 29.79309082 C-32.7115353 27.57157342 -31.97815186 25.34618516 -31.24584961 23.12011719 C-24.18815111 1.94717527 -24.18815111 1.94717527 -17.0625 -2.5625 C-10.85145704 -4.63284765 -5.71913285 -2.6373946 0 0 Z M-183.99584961 255.77563477 C-200.44682192 278.23701776 -226.91721037 318.41461126 -224.0625 347.4375 C-222.68533334 350.14857713 -222.68533334 350.14857713 -220.0625 351.4375 C-213.46845632 351.69111706 -209.84963344 348.44082462 -205.0625 344.4375 C-204.2271875 343.77363281 -203.391875 343.10976563 -202.53125 342.42578125 C-177.31087956 322.24223766 -158.05692469 297.72232244 -141.0625 270.375 C-140.52254395 269.50673584 -139.98258789 268.63847168 -139.42626953 267.74389648 C-133.02471076 258.18393285 -133.02471076 258.18393285 -130.0625 247.4375 C-132.18542769 241.85700993 -135.35385874 239.17826729 -140 235.75 C-140.62068359 235.27755859 -141.24136719 234.80511719 -141.88085938 234.31835938 C-143.07676593 233.41028549 -144.278849 232.51027201 -145.48779297 231.61962891 C-146.76073585 230.66403365 -147.98492245 229.64370894 -149.19140625 228.60546875 C-160.19499342 221.73684127 -178.15269077 248.02688958 -183.99584961 255.77563477 Z " fill="#000000" transform="translate(682.0625,34.5625)"/>
<path d="M0 0 C9.78981677 0.20626842 21.13304589 7.30737009 27.953125 13.9765625 C30.07900518 16.44118183 31.40069846 18.50723506 32.375 21.625 C31.95419963 27.23337215 30.29924056 31.71653912 28.125 36.8125 C12.55439726 74.70873107 -0.14157161 114.03675635 -12.10131836 153.19677734 C-15.93449417 165.7293913 -19.93601175 178.20778056 -23.9375 190.6875 C-24.49230545 192.41835342 -24.49230545 192.41835342 -25.05831909 194.18417358 C-29.44282055 207.85147269 -33.87805469 221.49938915 -38.44674683 235.10626221 C-42.15586352 246.15338792 -45.85236507 257.20424066 -49.375 268.3125 C-49.71088135 269.34012451 -50.0467627 270.36774902 -50.39282227 271.42651367 C-52.25459849 277.39395141 -52.95980978 282.37307115 -52.625 288.625 C-48.17770767 288.8989736 -45.82801047 288.6048616 -42.25 285.9375 C-41.39148438 285.29941406 -40.53296875 284.66132813 -39.6484375 284.00390625 C-34.6202921 280.04765231 -29.65502046 276.01766332 -24.7109375 271.95703125 C-21.01946185 268.93175839 -17.27066773 265.98800887 -13.5 263.0625 C-8.12336247 258.88016303 -2.94825195 254.50343955 2.19360352 250.03710938 C6.52216712 246.29938288 10.98621918 242.79420742 15.54663086 239.34570312 C20.60496831 235.5002284 25.42970645 231.40561864 30.2578125 227.27734375 C33.09687125 224.85147724 35.97742955 222.48085076 38.875 220.125 C43.48112915 216.37582511 48.018896 212.55314812 52.54345703 208.70654297 C55.9135099 205.84653062 59.31526308 203.03244267 62.75 200.25 C67.87233524 196.08343577 72.84917378 191.76298719 77.82543945 187.42456055 C82.33439957 183.5025046 86.92198064 179.69468135 91.56640625 175.93359375 C95.49136015 172.70737991 99.33257448 169.38694089 103.17944336 166.06835938 C106.73924587 163.00469489 110.34187771 160.00902789 114 157.0625 C118.4590996 153.44683713 122.68981806 149.62289396 126.890625 145.71508789 C131.02425808 141.89134343 135.34030152 138.33631883 139.7265625 134.8046875 C142.34775119 132.64742601 144.86654281 130.41189 147.375 128.125 C150.74960948 125.04846328 154.19315864 122.11381783 157.75 119.25 C162.89403043 115.08821017 167.75226098 110.67901238 172.6015625 106.18359375 C175.46530464 103.54169079 178.38277743 100.97557594 181.328125 98.42578125 C183.81574726 96.23724335 186.24853452 93.99260809 188.6875 91.75 C192.22509948 88.5177002 195.81617256 85.42443674 199.5625 82.4375 C209.88493188 74.04422555 219.33487699 64.73478257 228.640625 55.2421875 C229.94535867 53.9168774 231.25020995 52.59168306 232.55517578 51.26660156 C235.16740188 48.61331871 237.76134242 45.94363824 240.34716797 43.26464844 C241.56678121 42.02219563 242.78697187 40.78030929 244.0078125 39.5390625 C244.56043762 38.95744354 245.11306274 38.37582458 245.68243408 37.77658081 C248.2271634 35.21475229 250.13383594 33.70042985 253.60498047 32.61474609 C256.375 32.625 256.375 32.625 259.0625 34.875 C264.2758904 42.21423891 264.91492734 50.71597154 263.9453125 59.421875 C261.58763217 72.66364124 254.28571868 81.86218634 245.6015625 91.6652832 C240.34149587 97.13010742 240.34149587 97.13010742 238.4140625 104.09375 C239.65523612 107.36318296 241.46061095 109.48738672 243.75 112.125 C252.12078094 121.83183392 252.12078094 121.83183392 251.86474609 128.15722656 C250.84729614 133.28403818 248.36284694 137.91643174 246.10424805 142.59692383 C241.46386198 152.2298957 237.11647664 161.72629377 234.93286133 172.25732422 C233.87615623 177.04557506 232.23574464 179.58865497 228.375 182.625 C219.10460904 183.11291531 210.23937138 177.50016374 203.375 171.6875 C197.51936357 166.09610709 195.08650004 160.5264015 193.28125 152.6640625 C192.56671488 150.46955226 192.56671488 150.46955226 190.4921875 149.69921875 C187.81428479 149.60534393 187.07207606 150.1389001 185 151.8125 C184.30777344 152.36808594 183.61554688 152.92367187 182.90234375 153.49609375 C182.06832031 154.19863281 181.23429687 154.90117187 180.375 155.625 C179.8608252 156.05570801 179.34665039 156.48641602 178.81689453 156.93017578 C172.65987947 162.10050113 166.60963065 167.37398174 160.6875 172.8125 C157.19240111 176.02145044 153.6321616 179.08565837 149.9375 182.0625 C145.4010327 185.72135769 141.116339 189.57368963 136.85351562 193.54101562 C133.64218772 196.5120119 130.34881211 199.32453832 126.9375 202.0625 C122.75259413 205.42848904 118.79213959 208.95703353 114.875 212.625 C110.12632512 217.06638719 105.25791517 221.27216266 100.1875 225.34765625 C97.04266013 227.89410298 93.95636887 230.50249108 90.875 233.125 C86.02576082 237.24642643 81.1233815 241.29492203 76.1875 245.3125 C72.4940609 248.3493277 68.85201514 251.44460955 65.20874023 254.54125977 C61.81545891 257.4204532 58.39232214 260.25704237 54.9375 263.0625 C50.81736646 266.41568228 46.77176169 269.8429667 42.75 273.3125 C34.73699995 280.21964361 26.56292291 286.92694469 18.375 293.625 C17.40949219 294.41519531 16.44398438 295.20539063 15.44921875 296.01953125 C13.73371085 297.42265532 12.01756513 298.82499994 10.30078125 300.2265625 C8.00153621 302.11139087 5.70807084 304.00254661 3.41796875 305.8984375 C-3.75744077 311.8344581 -10.96170851 317.71456192 -18.30908203 323.43652344 C-25.2220354 328.83979673 -31.96045661 334.45525839 -38.71826172 340.05029297 C-41.26059075 342.14991169 -43.81744908 344.23146512 -46.375 346.3125 C-50.88728264 349.99753083 -55.33833175 353.75046793 -59.77246094 357.52880859 C-63.34072439 360.56279231 -66.96675838 363.51189011 -70.625 366.4375 C-75.1131066 370.10126049 -79.05895797 373.49291593 -81.6875 378.75 C-81.8013874 380.80961201 -81.8013874 380.80961201 -80.04125977 382.68115234 C-76.92037554 385.19186066 -74.8763114 385.29655067 -70.90234375 385.6015625 C-70.24890991 385.65697708 -69.59547607 385.71239166 -68.92224121 385.76948547 C-67.52618661 385.88565471 -66.12942587 385.99358378 -64.73214722 386.09396362 C-62.54576445 386.25120358 -60.36215877 386.43027974 -58.17797852 386.61547852 C-55.29763363 386.85787096 -52.41687798 387.09243021 -49.53515625 387.31787109 C-23.86346755 389.3342912 2.14654777 393.86025013 20.75390625 413.55078125 C27.11509665 421.69003932 28.19094347 431.36413597 27.06640625 441.37109375 C26.18755916 447.10304338 25.14406342 451.17065232 21.375 455.625 C18.375 457.625 18.375 457.625 15.5234375 457.44921875 C12.15236753 456.5667178 9.91508558 455.32938219 7 453.4375 C-4.77294087 446.35045154 -17.12840734 442.88806503 -30.625 440.625 C-31.9562383 440.36982951 -33.28695984 440.11195023 -34.6171875 439.8515625 C-48.17296561 437.28486276 -61.86267399 436.3472575 -75.625 435.625 C-76.60968262 435.57150391 -77.59436523 435.51800781 -78.60888672 435.46289062 C-81.23960256 435.33597617 -83.86707281 435.25087804 -86.5 435.1875 C-87.25982178 435.15309814 -88.01964355 435.11869629 -88.80249023 435.08325195 C-92.41119802 435.05467387 -94.40736091 435.47592794 -97.40234375 437.52734375 C-100.37403216 441.66890599 -101.7961111 445.78620423 -103.3125 450.625 C-103.64354736 451.65173828 -103.97459473 452.67847656 -104.31567383 453.73632812 C-112.6311207 480.09125446 -120.92855349 507.56892153 -123.6875 535.125 C-124.29563316 541.11465673 -125.03270737 545.67346151 -128.625 550.625 C-134.74681453 555.49746463 -141.53750826 556.05666597 -149.203125 555.40625 C-157.20324853 554.0980537 -166.56109238 550.7932789 -171.52075195 544.01269531 C-175.96283118 534.40766882 -171.75034768 519.98569658 -169.6875 510.0625 C-169.37042785 508.49111682 -169.05370489 506.91966315 -168.73730469 505.34814453 C-163.28991428 478.58931749 -156.62012134 452.1213958 -149.60644531 425.73583984 C-149.39101578 424.92449081 -149.17558624 424.11314178 -148.95362854 423.27720642 C-148.5160379 421.63039896 -148.07733573 419.98388649 -147.63755798 418.33766174 C-146.46336198 413.91279087 -145.34232925 409.48122695 -144.2902832 405.02563477 C-140.50940154 389.11313212 -135.52909517 373.76347298 -130.1875 358.3125 C-129.28701631 355.68692286 -128.38952088 353.06032628 -127.49169922 350.43383789 C-122.19439197 334.95612937 -116.80100711 319.51217229 -111.37701416 304.07846069 C-105.2601518 286.65390975 -99.39792313 269.1452989 -93.5625 251.625 C-93.32321274 250.90664349 -93.08392548 250.18828697 -92.83738708 249.44816208 C-87.25770851 232.6931624 -81.72668976 215.92378339 -76.3041687 199.11715698 C-65.38777011 165.28671951 -53.68913674 131.69814124 -41.75634766 98.21362305 C-38.57532894 89.28422799 -35.49658306 80.32371444 -32.47265625 71.33984375 C-19.08299468 31.57162545 -19.08299468 31.57162545 -13.8125 18.375 C-13.43464355 17.4255249 -13.05678711 16.4760498 -12.66748047 15.49780273 C-6.75840675 1.16524254 -6.75840675 1.16524254 0 0 Z " fill="#000000" transform="translate(187.625,10.375)"/>
<path d="M0 0 C6.13658727 3.23509089 10.65827356 6.86119257 14.4375 12.6875 C16.04812505 21.34460963 12.75091339 29.70092753 9.84375 37.7265625 C9.20159398 39.54833129 8.55946331 41.37010922 7.91832638 43.1922369 C7.23547791 45.12820157 6.54785414 47.06241467 5.85916138 48.99630737 C3.42025199 55.85322488 1.03146387 62.72761218 -1.34765625 69.60546875 C-1.5904236 70.30695353 -1.83319096 71.0084383 -2.0833149 71.73118019 C-7.06520761 86.15569751 -11.62150085 100.69292396 -16 115.3125 C-16.34791595 116.47324036 -16.69583191 117.63398071 -17.05429077 118.82989502 C-18.76285353 124.53914153 -20.46291518 130.25086473 -22.15722656 135.96435547 C-25.02068601 145.61411621 -27.9448009 155.24533625 -30.875 164.875 C-31.28610016 166.22857605 -31.28610016 166.22857605 -31.70550537 167.60949707 C-36.86527284 184.59199142 -42.16227925 201.53091905 -47.46883011 218.46793747 C-55.4855407 244.05811137 -63.47179651 269.65447364 -71.0625 295.375 C-71.33068542 296.28229858 -71.59887085 297.18959717 -71.87518311 298.12438965 C-92.51010965 367.15160769 -92.51010965 367.15160769 -106.52587891 437.71337891 C-106.70296387 438.92171387 -106.88004883 440.13004883 -107.0625 441.375 C-107.16705505 442.09379333 -107.27161011 442.81258667 -107.3793335 443.55316162 C-107.72006377 445.84419903 -108.08249439 448.13096245 -108.44921875 450.41796875 C-108.55039505 451.12198318 -108.65157135 451.82599762 -108.7558136 452.55134583 C-109.5480218 457.33995663 -111.07271122 460.56776087 -114.0625 464.375 C-117.57871165 466.68565337 -121.0676142 466.75819797 -125.19921875 466.16796875 C-133.98838299 463.73386187 -144.41572042 459.0929313 -149.92578125 451.6015625 C-153.58810947 444.42792991 -153.24702079 437.01850734 -152.35546875 429.19921875 C-152.26706726 428.42008621 -152.17866577 427.64095367 -152.08758545 426.83821106 C-150.95566094 417.61068301 -148.91556113 408.60865475 -146.8125 399.5625 C-146.40993795 397.79490872 -146.00767809 396.02724859 -145.60571289 394.25952148 C-143.31560944 384.27821204 -140.91131266 374.34555396 -137.73925781 364.6003418 C-136.08750664 359.36130463 -135.85119113 354.87444877 -136.0625 349.375 C-139.64257036 349.42072248 -141.97734305 349.50771821 -144.82080078 351.78027344 C-146.65966338 353.71707602 -148.3992512 355.71177943 -150.125 357.75 C-164.24420088 373.57645902 -184.02635131 389.80232331 -206.03759766 391.5300293 C-221.72065393 392.35626026 -232.61372722 389.32968067 -245.0625 379.375 C-245.69929687 378.87613281 -246.33609375 378.37726563 -246.9921875 377.86328125 C-255.39592128 370.44932056 -260.33826002 358.38344764 -261.0625 347.375 C-263.86542898 300.09822065 -241.26071738 250.89214411 -210.29296875 215.89453125 C-182.21687542 185.00447448 -182.21687542 185.00447448 -163.0625 179.375 C-161.969375 179.045 -160.87625 178.715 -159.75 178.375 C-146.52348619 178.375 -135.25927132 185.88276537 -126.1875 194.875 C-123.2185462 197.94108884 -120.50736387 200.95923901 -118.125 204.5 C-116.37896204 207.37259011 -116.37896204 207.37259011 -114.24609375 208.3671875 C-111.79379347 208.61681158 -111.79379347 208.61681158 -109.61499023 206.22998047 C-107.1226846 203.44231695 -105.63540128 201.06401296 -104.0390625 197.703125 C-103.50104004 196.58147949 -102.96301758 195.45983398 -102.40869141 194.30419922 C-101.83453011 193.07800112 -101.26081325 191.85159483 -100.6875 190.625 C-100.07399696 189.33191296 -99.45988809 188.03911322 -98.84521484 186.74658203 C-92.73143797 173.84273859 -86.84730735 160.83210212 -80.97824097 147.81565857 C-78.65636427 142.67267251 -76.30700695 137.5427795 -73.9453125 132.41796875 C-59.93912753 102.01410792 -47.13835293 71.40822082 -36.43359375 39.671875 C-36.1228038 38.75253677 -35.81201385 37.83319855 -35.49180603 36.88600159 C-33.95463402 32.3351565 -32.42815392 27.78122113 -30.9206543 23.22045898 C-23.77955142 1.7986788 -23.77955142 1.7986788 -17.0625 -2.625 C-10.8168551 -4.70688163 -5.72600054 -2.69078973 0 0 Z M-165.39941406 234.43383789 C-165.88635742 234.93004639 -166.37330078 235.42625488 -166.875 235.9375 C-167.39416992 236.4627124 -167.91333984 236.9879248 -168.44824219 237.52905273 C-173.3341061 242.53894242 -177.79175374 247.83108788 -182.0625 253.375 C-183.02542969 254.6125 -183.02542969 254.6125 -184.0078125 255.875 C-193.46578208 268.43457094 -201.42274239 282.13619561 -208.10644531 296.35205078 C-208.74920122 297.71208027 -209.40240296 299.06721719 -210.06542969 300.41748047 C-214.72114746 309.90044245 -218.19137586 319.45265947 -221.0625 329.625 C-221.36551025 330.6967749 -221.66852051 331.7685498 -221.98071289 332.87280273 C-223.32219364 337.84065204 -224.38661171 342.18741204 -224.0625 347.375 C-222.64583333 349.95833333 -222.64583333 349.95833333 -220.0625 351.375 C-210.3575165 352.16724355 -202.12505615 342.55243565 -195.1875 336.6875 C-184.47328548 327.45435079 -174.74750622 317.55263436 -166.0625 306.375 C-165.28648437 305.40433594 -164.51046875 304.43367188 -163.7109375 303.43359375 C-143.13226527 277.91451941 -143.13226527 277.91451941 -130.375 248.3125 C-132.59340272 238.83387019 -144.42623068 231.46584621 -152.0625 226.375 C-157.67712731 226.375 -161.57099526 230.63846739 -165.39941406 234.43383789 Z " fill="#000000" transform="translate(879.0625,34.625)"/>
<path d="M0 0 C7.83388002 3.53174923 16.43299147 8.91609464 20.0625 17 C21.04632568 23.09971923 19.6726295 27.56013135 17.47265625 33.234375 C17.07345222 34.281129 17.07345222 34.281129 16.66618347 35.34902954 C14.14924346 41.89262707 11.45683137 48.3616443 8.76049805 54.83276367 C1.09498227 73.25745275 -5.52209678 91.82853784 -11.30718994 110.92230225 C-11.93307371 112.98540959 -12.56432471 115.04680808 -13.19677734 117.10791016 C-18.44142445 134.2410623 -23.22473377 151.49267299 -27.8125 168.8125 C-28.04179199 169.67020996 -28.27108398 170.52791992 -28.50732422 171.41162109 C-32.95922965 188.11671316 -36.64052776 205.02546187 -38.63174438 222.21659851 C-39.36682662 227.3206674 -40.83253241 229.88140591 -44.9375 233 C-51.21388049 235.37153139 -57.97629772 232.23545086 -63.9375 230 C-71.42093386 226.15838286 -77.47072115 221.8959959 -80.9375 214 C-82.61061021 206.29659228 -81.61160249 198.66514211 -80.625 190.9375 C-80.49416016 189.81794922 -80.36332031 188.69839844 -80.22851562 187.54492188 C-79.54667471 181.92879262 -78.72037612 176.44578447 -77.32788086 170.95947266 C-76.6631541 167.62295175 -76.81422548 164.39004921 -76.9375 161 C-82.55459467 162.21926898 -85.90945319 164.25439746 -90.125 168.1875 C-101.824949 178.56177204 -114.10133545 184.98089727 -129.9375 185 C-143.09446903 184.18233526 -155.39713313 180.44572038 -164.9375 171 C-172.15414704 162.2165809 -174.48854811 153.80814782 -174.375 142.625 C-174.36670166 141.56571289 -174.35840332 140.50642578 -174.34985352 139.41503906 C-173.86082366 116.35232143 -164.69219857 94.58987755 -154.9375 74 C-154.55722656 73.19030762 -154.17695312 72.38061523 -153.78515625 71.54638672 C-146.20221428 55.51343687 -137.46373491 40.54270366 -125.9375 27 C-125.41285156 26.319375 -124.88820313 25.63875 -124.34765625 24.9375 C-117.23955012 16.03933291 -106.21147538 8.2108705 -94.9375 6 C-80.03021834 4.55195117 -67.98753869 7.95794089 -55.9375 17 C-54.3378175 18.46146993 -52.75369922 19.94020294 -51.1875 21.4375 C-48.24716889 24.13630392 -47.20448228 24.94215384 -43.1875 25.8125 C-37.17704972 24.30988743 -34.01459583 18.94895506 -30.5 14.125 C-21.68821682 2.24443661 -15.60847579 -5.93844323 0 0 Z M-87.9375 54 C-88.70513672 54.78503906 -88.70513672 54.78503906 -89.48828125 55.5859375 C-103.37308504 70.20488034 -124.80300517 104.66695153 -125.12890625 125.359375 C-125.35476936 128.80573284 -125.35476936 128.80573284 -123.9375 130 C-120.55296204 130.34931075 -118.62663478 130.46935666 -115.76953125 128.5234375 C-109.93754754 122.31919951 -104.65424631 115.76784672 -99.48681641 109.01123047 C-97.84538967 106.88042784 -96.18119579 104.769043 -94.51171875 102.66015625 C-78.32500898 84.66781501 -78.32500898 84.66781501 -71.9375 63 C-73.10102849 55.35512624 -73.10102849 55.35512624 -76.9375 49 C-82.57811334 48.12257126 -84.3476569 49.79725686 -87.9375 54 Z " fill="#000000" transform="translate(1262.9375,217)"/>
</svg>
